<mxfile host="app.diagrams.net" agent="Mozilla/5.0 (Windows NT 10.0; Win64; x64) AppleWebKit/537.36 (KHTML, like Gecko) Chrome/137.0.0.0 Safari/537.36 Edg/137.0.0.0" version="27.1.3">
  <diagram name="第 1 页" id="SNnUAwdkBXaZDfroSAXm">
    <mxGraphModel dx="1288" dy="697" grid="1" gridSize="10" guides="1" tooltips="1" connect="1" arrows="1" fold="1" page="1" pageScale="1" pageWidth="1200" pageHeight="1920" math="0" shadow="0">
      <root>
        <mxCell id="0" />
        <mxCell id="1" parent="0" />
        <mxCell id="omLP0h6Ja_QN9Xo375QR-21" style="rounded=0;orthogonalLoop=1;jettySize=auto;html=1;endArrow=none;startFill=0;" edge="1" parent="1" source="omLP0h6Ja_QN9Xo375QR-1" target="omLP0h6Ja_QN9Xo375QR-2">
          <mxGeometry relative="1" as="geometry" />
        </mxCell>
        <mxCell id="omLP0h6Ja_QN9Xo375QR-25" value="n" style="edgeLabel;html=1;align=center;verticalAlign=middle;resizable=0;points=[];" vertex="1" connectable="0" parent="omLP0h6Ja_QN9Xo375QR-21">
          <mxGeometry x="-0.0057" relative="1" as="geometry">
            <mxPoint as="offset" />
          </mxGeometry>
        </mxCell>
        <mxCell id="omLP0h6Ja_QN9Xo375QR-1" value="电动车分类" style="rounded=0;whiteSpace=wrap;html=1;" vertex="1" parent="1">
          <mxGeometry x="110" y="150" width="90" height="40" as="geometry" />
        </mxCell>
        <mxCell id="omLP0h6Ja_QN9Xo375QR-22" style="rounded=0;orthogonalLoop=1;jettySize=auto;html=1;endArrow=none;startFill=0;" edge="1" parent="1" source="omLP0h6Ja_QN9Xo375QR-2" target="omLP0h6Ja_QN9Xo375QR-3">
          <mxGeometry relative="1" as="geometry" />
        </mxCell>
        <mxCell id="omLP0h6Ja_QN9Xo375QR-26" value="1" style="edgeLabel;html=1;align=center;verticalAlign=middle;resizable=0;points=[];" vertex="1" connectable="0" parent="omLP0h6Ja_QN9Xo375QR-22">
          <mxGeometry x="-0.01" relative="1" as="geometry">
            <mxPoint as="offset" />
          </mxGeometry>
        </mxCell>
        <mxCell id="omLP0h6Ja_QN9Xo375QR-2" value="管理" style="rhombus;whiteSpace=wrap;html=1;" vertex="1" parent="1">
          <mxGeometry x="330" y="130" width="80" height="80" as="geometry" />
        </mxCell>
        <mxCell id="omLP0h6Ja_QN9Xo375QR-23" style="rounded=0;orthogonalLoop=1;jettySize=auto;html=1;endArrow=none;startFill=0;" edge="1" parent="1" source="omLP0h6Ja_QN9Xo375QR-3" target="omLP0h6Ja_QN9Xo375QR-4">
          <mxGeometry relative="1" as="geometry" />
        </mxCell>
        <mxCell id="omLP0h6Ja_QN9Xo375QR-27" value="1" style="edgeLabel;html=1;align=center;verticalAlign=middle;resizable=0;points=[];" vertex="1" connectable="0" parent="omLP0h6Ja_QN9Xo375QR-23">
          <mxGeometry x="-0.048" y="-2" relative="1" as="geometry">
            <mxPoint as="offset" />
          </mxGeometry>
        </mxCell>
        <mxCell id="omLP0h6Ja_QN9Xo375QR-41" style="rounded=0;orthogonalLoop=1;jettySize=auto;html=1;endArrow=none;startFill=0;" edge="1" parent="1" source="omLP0h6Ja_QN9Xo375QR-3" target="omLP0h6Ja_QN9Xo375QR-14">
          <mxGeometry relative="1" as="geometry" />
        </mxCell>
        <mxCell id="omLP0h6Ja_QN9Xo375QR-42" value="1" style="edgeLabel;html=1;align=center;verticalAlign=middle;resizable=0;points=[];" vertex="1" connectable="0" parent="omLP0h6Ja_QN9Xo375QR-41">
          <mxGeometry x="-0.1388" y="-1" relative="1" as="geometry">
            <mxPoint as="offset" />
          </mxGeometry>
        </mxCell>
        <mxCell id="omLP0h6Ja_QN9Xo375QR-3" value="管理员" style="rounded=0;whiteSpace=wrap;html=1;" vertex="1" parent="1">
          <mxGeometry x="450" y="150" width="90" height="40" as="geometry" />
        </mxCell>
        <mxCell id="omLP0h6Ja_QN9Xo375QR-24" style="rounded=0;orthogonalLoop=1;jettySize=auto;html=1;endArrow=none;startFill=0;" edge="1" parent="1" source="omLP0h6Ja_QN9Xo375QR-4" target="omLP0h6Ja_QN9Xo375QR-5">
          <mxGeometry relative="1" as="geometry" />
        </mxCell>
        <mxCell id="omLP0h6Ja_QN9Xo375QR-28" value="n" style="edgeLabel;html=1;align=center;verticalAlign=middle;resizable=0;points=[];" vertex="1" connectable="0" parent="omLP0h6Ja_QN9Xo375QR-24">
          <mxGeometry x="-0.0867" y="1" relative="1" as="geometry">
            <mxPoint as="offset" />
          </mxGeometry>
        </mxCell>
        <mxCell id="omLP0h6Ja_QN9Xo375QR-4" value="管理" style="rhombus;whiteSpace=wrap;html=1;" vertex="1" parent="1">
          <mxGeometry x="590" y="130" width="80" height="80" as="geometry" />
        </mxCell>
        <mxCell id="omLP0h6Ja_QN9Xo375QR-45" style="rounded=0;orthogonalLoop=1;jettySize=auto;html=1;endArrow=none;startFill=0;" edge="1" parent="1" source="omLP0h6Ja_QN9Xo375QR-5" target="omLP0h6Ja_QN9Xo375QR-16">
          <mxGeometry relative="1" as="geometry" />
        </mxCell>
        <mxCell id="omLP0h6Ja_QN9Xo375QR-57" value="n" style="edgeLabel;html=1;align=center;verticalAlign=middle;resizable=0;points=[];" vertex="1" connectable="0" parent="omLP0h6Ja_QN9Xo375QR-45">
          <mxGeometry x="0.0768" y="7" relative="1" as="geometry">
            <mxPoint x="1" y="-9" as="offset" />
          </mxGeometry>
        </mxCell>
        <mxCell id="omLP0h6Ja_QN9Xo375QR-49" style="rounded=0;orthogonalLoop=1;jettySize=auto;html=1;endArrow=none;startFill=0;" edge="1" parent="1" source="omLP0h6Ja_QN9Xo375QR-5" target="omLP0h6Ja_QN9Xo375QR-17">
          <mxGeometry relative="1" as="geometry" />
        </mxCell>
        <mxCell id="omLP0h6Ja_QN9Xo375QR-50" value="1" style="edgeLabel;html=1;align=center;verticalAlign=middle;resizable=0;points=[];" vertex="1" connectable="0" parent="omLP0h6Ja_QN9Xo375QR-49">
          <mxGeometry x="-0.1222" y="3" relative="1" as="geometry">
            <mxPoint as="offset" />
          </mxGeometry>
        </mxCell>
        <mxCell id="omLP0h6Ja_QN9Xo375QR-53" style="rounded=0;orthogonalLoop=1;jettySize=auto;html=1;endArrow=none;startFill=0;" edge="1" parent="1" source="omLP0h6Ja_QN9Xo375QR-5" target="omLP0h6Ja_QN9Xo375QR-19">
          <mxGeometry relative="1" as="geometry" />
        </mxCell>
        <mxCell id="omLP0h6Ja_QN9Xo375QR-54" value="1" style="edgeLabel;html=1;align=center;verticalAlign=middle;resizable=0;points=[];" vertex="1" connectable="0" parent="omLP0h6Ja_QN9Xo375QR-53">
          <mxGeometry x="-0.0286" relative="1" as="geometry">
            <mxPoint as="offset" />
          </mxGeometry>
        </mxCell>
        <mxCell id="omLP0h6Ja_QN9Xo375QR-5" value="用户" style="rounded=0;whiteSpace=wrap;html=1;" vertex="1" parent="1">
          <mxGeometry x="850" y="150" width="90" height="40" as="geometry" />
        </mxCell>
        <mxCell id="omLP0h6Ja_QN9Xo375QR-29" style="rounded=0;orthogonalLoop=1;jettySize=auto;html=1;endArrow=none;startFill=0;" edge="1" parent="1" source="omLP0h6Ja_QN9Xo375QR-6" target="omLP0h6Ja_QN9Xo375QR-7">
          <mxGeometry relative="1" as="geometry" />
        </mxCell>
        <mxCell id="omLP0h6Ja_QN9Xo375QR-30" value="n" style="edgeLabel;html=1;align=center;verticalAlign=middle;resizable=0;points=[];" vertex="1" connectable="0" parent="omLP0h6Ja_QN9Xo375QR-29">
          <mxGeometry x="-0.382" y="1" relative="1" as="geometry">
            <mxPoint as="offset" />
          </mxGeometry>
        </mxCell>
        <mxCell id="omLP0h6Ja_QN9Xo375QR-33" style="rounded=0;orthogonalLoop=1;jettySize=auto;html=1;endArrow=none;startFill=0;" edge="1" parent="1" source="omLP0h6Ja_QN9Xo375QR-6" target="omLP0h6Ja_QN9Xo375QR-8">
          <mxGeometry relative="1" as="geometry" />
        </mxCell>
        <mxCell id="omLP0h6Ja_QN9Xo375QR-34" value="n" style="edgeLabel;html=1;align=center;verticalAlign=middle;resizable=0;points=[];" vertex="1" connectable="0" parent="omLP0h6Ja_QN9Xo375QR-33">
          <mxGeometry x="-0.077" relative="1" as="geometry">
            <mxPoint as="offset" />
          </mxGeometry>
        </mxCell>
        <mxCell id="omLP0h6Ja_QN9Xo375QR-6" value="还车记录" style="rounded=0;whiteSpace=wrap;html=1;" vertex="1" parent="1">
          <mxGeometry x="110" y="290" width="90" height="40" as="geometry" />
        </mxCell>
        <mxCell id="omLP0h6Ja_QN9Xo375QR-31" style="rounded=0;orthogonalLoop=1;jettySize=auto;html=1;entryX=0.5;entryY=1;entryDx=0;entryDy=0;endArrow=none;startFill=0;" edge="1" parent="1" source="omLP0h6Ja_QN9Xo375QR-7" target="omLP0h6Ja_QN9Xo375QR-3">
          <mxGeometry relative="1" as="geometry" />
        </mxCell>
        <mxCell id="omLP0h6Ja_QN9Xo375QR-32" value="1" style="edgeLabel;html=1;align=center;verticalAlign=middle;resizable=0;points=[];" vertex="1" connectable="0" parent="omLP0h6Ja_QN9Xo375QR-31">
          <mxGeometry x="-0.3067" y="1" relative="1" as="geometry">
            <mxPoint as="offset" />
          </mxGeometry>
        </mxCell>
        <mxCell id="omLP0h6Ja_QN9Xo375QR-7" value="管理" style="rhombus;whiteSpace=wrap;html=1;" vertex="1" parent="1">
          <mxGeometry x="350" y="220" width="80" height="80" as="geometry" />
        </mxCell>
        <mxCell id="omLP0h6Ja_QN9Xo375QR-37" style="rounded=0;orthogonalLoop=1;jettySize=auto;html=1;endArrow=none;startFill=0;" edge="1" parent="1" source="omLP0h6Ja_QN9Xo375QR-8" target="omLP0h6Ja_QN9Xo375QR-11">
          <mxGeometry relative="1" as="geometry" />
        </mxCell>
        <mxCell id="omLP0h6Ja_QN9Xo375QR-38" value="1" style="edgeLabel;html=1;align=center;verticalAlign=middle;resizable=0;points=[];" vertex="1" connectable="0" parent="omLP0h6Ja_QN9Xo375QR-37">
          <mxGeometry x="-0.2709" y="-1" relative="1" as="geometry">
            <mxPoint as="offset" />
          </mxGeometry>
        </mxCell>
        <mxCell id="omLP0h6Ja_QN9Xo375QR-8" value="发布" style="rhombus;whiteSpace=wrap;html=1;" vertex="1" parent="1">
          <mxGeometry x="250" y="340" width="80" height="80" as="geometry" />
        </mxCell>
        <mxCell id="omLP0h6Ja_QN9Xo375QR-35" style="rounded=0;orthogonalLoop=1;jettySize=auto;html=1;endArrow=none;startFill=0;" edge="1" parent="1" source="omLP0h6Ja_QN9Xo375QR-9" target="omLP0h6Ja_QN9Xo375QR-10">
          <mxGeometry relative="1" as="geometry" />
        </mxCell>
        <mxCell id="omLP0h6Ja_QN9Xo375QR-36" value="n" style="edgeLabel;html=1;align=center;verticalAlign=middle;resizable=0;points=[];" vertex="1" connectable="0" parent="omLP0h6Ja_QN9Xo375QR-35">
          <mxGeometry x="0.072" y="1" relative="1" as="geometry">
            <mxPoint as="offset" />
          </mxGeometry>
        </mxCell>
        <mxCell id="omLP0h6Ja_QN9Xo375QR-9" value="违章登记" style="rounded=0;whiteSpace=wrap;html=1;" vertex="1" parent="1">
          <mxGeometry x="110" y="490" width="90" height="40" as="geometry" />
        </mxCell>
        <mxCell id="omLP0h6Ja_QN9Xo375QR-10" value="发布" style="rhombus;whiteSpace=wrap;html=1;" vertex="1" parent="1">
          <mxGeometry x="250" y="470" width="80" height="80" as="geometry" />
        </mxCell>
        <mxCell id="omLP0h6Ja_QN9Xo375QR-39" style="rounded=0;orthogonalLoop=1;jettySize=auto;html=1;entryX=0.5;entryY=1;entryDx=0;entryDy=0;endArrow=none;startFill=0;" edge="1" parent="1" source="omLP0h6Ja_QN9Xo375QR-11" target="omLP0h6Ja_QN9Xo375QR-14">
          <mxGeometry relative="1" as="geometry" />
        </mxCell>
        <mxCell id="omLP0h6Ja_QN9Xo375QR-40" value="1" style="edgeLabel;html=1;align=center;verticalAlign=middle;resizable=0;points=[];" vertex="1" connectable="0" parent="omLP0h6Ja_QN9Xo375QR-39">
          <mxGeometry x="0.0068" y="1" relative="1" as="geometry">
            <mxPoint as="offset" />
          </mxGeometry>
        </mxCell>
        <mxCell id="omLP0h6Ja_QN9Xo375QR-58" style="rounded=0;orthogonalLoop=1;jettySize=auto;html=1;endArrow=none;startFill=0;" edge="1" parent="1" source="omLP0h6Ja_QN9Xo375QR-11" target="omLP0h6Ja_QN9Xo375QR-13">
          <mxGeometry relative="1" as="geometry" />
        </mxCell>
        <mxCell id="omLP0h6Ja_QN9Xo375QR-59" value="n" style="edgeLabel;html=1;align=center;verticalAlign=middle;resizable=0;points=[];" vertex="1" connectable="0" parent="omLP0h6Ja_QN9Xo375QR-58">
          <mxGeometry x="-0.2502" y="-1" relative="1" as="geometry">
            <mxPoint as="offset" />
          </mxGeometry>
        </mxCell>
        <mxCell id="omLP0h6Ja_QN9Xo375QR-66" style="rounded=0;orthogonalLoop=1;jettySize=auto;html=1;endArrow=none;startFill=0;" edge="1" parent="1" source="omLP0h6Ja_QN9Xo375QR-11" target="omLP0h6Ja_QN9Xo375QR-12">
          <mxGeometry relative="1" as="geometry" />
        </mxCell>
        <mxCell id="omLP0h6Ja_QN9Xo375QR-67" value="1" style="edgeLabel;html=1;align=center;verticalAlign=middle;resizable=0;points=[];" vertex="1" connectable="0" parent="omLP0h6Ja_QN9Xo375QR-66">
          <mxGeometry x="-0.0746" y="-3" relative="1" as="geometry">
            <mxPoint as="offset" />
          </mxGeometry>
        </mxCell>
        <mxCell id="omLP0h6Ja_QN9Xo375QR-70" style="rounded=0;orthogonalLoop=1;jettySize=auto;html=1;endArrow=none;startFill=0;" edge="1" parent="1" source="omLP0h6Ja_QN9Xo375QR-11" target="omLP0h6Ja_QN9Xo375QR-10">
          <mxGeometry relative="1" as="geometry" />
        </mxCell>
        <mxCell id="omLP0h6Ja_QN9Xo375QR-71" value="1" style="edgeLabel;html=1;align=center;verticalAlign=middle;resizable=0;points=[];" vertex="1" connectable="0" parent="omLP0h6Ja_QN9Xo375QR-70">
          <mxGeometry x="-0.0393" y="2" relative="1" as="geometry">
            <mxPoint as="offset" />
          </mxGeometry>
        </mxCell>
        <mxCell id="omLP0h6Ja_QN9Xo375QR-11" value="检验员" style="rounded=0;whiteSpace=wrap;html=1;" vertex="1" parent="1">
          <mxGeometry x="380" y="460" width="90" height="40" as="geometry" />
        </mxCell>
        <mxCell id="omLP0h6Ja_QN9Xo375QR-12" value="发布" style="rhombus;whiteSpace=wrap;html=1;" vertex="1" parent="1">
          <mxGeometry x="550" y="530" width="80" height="80" as="geometry" />
        </mxCell>
        <mxCell id="omLP0h6Ja_QN9Xo375QR-64" style="rounded=0;orthogonalLoop=1;jettySize=auto;html=1;endArrow=none;startFill=0;" edge="1" parent="1" source="omLP0h6Ja_QN9Xo375QR-13" target="omLP0h6Ja_QN9Xo375QR-18">
          <mxGeometry relative="1" as="geometry" />
        </mxCell>
        <mxCell id="omLP0h6Ja_QN9Xo375QR-65" value="n" style="edgeLabel;html=1;align=center;verticalAlign=middle;resizable=0;points=[];" vertex="1" connectable="0" parent="omLP0h6Ja_QN9Xo375QR-64">
          <mxGeometry x="-0.0436" y="1" relative="1" as="geometry">
            <mxPoint as="offset" />
          </mxGeometry>
        </mxCell>
        <mxCell id="omLP0h6Ja_QN9Xo375QR-13" value="查看" style="rhombus;whiteSpace=wrap;html=1;" vertex="1" parent="1">
          <mxGeometry x="550" y="430" width="80" height="80" as="geometry" />
        </mxCell>
        <mxCell id="omLP0h6Ja_QN9Xo375QR-14" value="发布" style="rhombus;whiteSpace=wrap;html=1;" vertex="1" parent="1">
          <mxGeometry x="520" y="220" width="80" height="80" as="geometry" />
        </mxCell>
        <mxCell id="omLP0h6Ja_QN9Xo375QR-43" style="rounded=0;orthogonalLoop=1;jettySize=auto;html=1;entryX=1;entryY=1;entryDx=0;entryDy=0;endArrow=none;startFill=0;" edge="1" parent="1" source="omLP0h6Ja_QN9Xo375QR-15" target="omLP0h6Ja_QN9Xo375QR-14">
          <mxGeometry relative="1" as="geometry" />
        </mxCell>
        <mxCell id="omLP0h6Ja_QN9Xo375QR-44" value="n" style="edgeLabel;html=1;align=center;verticalAlign=middle;resizable=0;points=[];" vertex="1" connectable="0" parent="omLP0h6Ja_QN9Xo375QR-43">
          <mxGeometry x="0.0545" y="2" relative="1" as="geometry">
            <mxPoint as="offset" />
          </mxGeometry>
        </mxCell>
        <mxCell id="omLP0h6Ja_QN9Xo375QR-47" style="rounded=0;orthogonalLoop=1;jettySize=auto;html=1;endArrow=none;startFill=0;" edge="1" parent="1" source="omLP0h6Ja_QN9Xo375QR-15" target="omLP0h6Ja_QN9Xo375QR-16">
          <mxGeometry relative="1" as="geometry" />
        </mxCell>
        <mxCell id="omLP0h6Ja_QN9Xo375QR-48" value="n" style="edgeLabel;html=1;align=center;verticalAlign=middle;resizable=0;points=[];" vertex="1" connectable="0" parent="omLP0h6Ja_QN9Xo375QR-47">
          <mxGeometry x="-0.0453" y="1" relative="1" as="geometry">
            <mxPoint as="offset" />
          </mxGeometry>
        </mxCell>
        <mxCell id="omLP0h6Ja_QN9Xo375QR-15" value="电动车信息" style="rounded=0;whiteSpace=wrap;html=1;" vertex="1" parent="1">
          <mxGeometry x="610" y="340" width="90" height="40" as="geometry" />
        </mxCell>
        <mxCell id="omLP0h6Ja_QN9Xo375QR-16" value="查看" style="rhombus;whiteSpace=wrap;html=1;" vertex="1" parent="1">
          <mxGeometry x="650" y="220" width="80" height="80" as="geometry" />
        </mxCell>
        <mxCell id="omLP0h6Ja_QN9Xo375QR-51" style="rounded=0;orthogonalLoop=1;jettySize=auto;html=1;endArrow=none;startFill=0;" edge="1" parent="1" source="omLP0h6Ja_QN9Xo375QR-17" target="omLP0h6Ja_QN9Xo375QR-18">
          <mxGeometry relative="1" as="geometry" />
        </mxCell>
        <mxCell id="omLP0h6Ja_QN9Xo375QR-52" value="n" style="edgeLabel;html=1;align=center;verticalAlign=middle;resizable=0;points=[];" vertex="1" connectable="0" parent="omLP0h6Ja_QN9Xo375QR-51">
          <mxGeometry x="-0.4182" y="3" relative="1" as="geometry">
            <mxPoint as="offset" />
          </mxGeometry>
        </mxCell>
        <mxCell id="omLP0h6Ja_QN9Xo375QR-17" value="发布" style="rhombus;whiteSpace=wrap;html=1;" vertex="1" parent="1">
          <mxGeometry x="740" y="320" width="80" height="80" as="geometry" />
        </mxCell>
        <mxCell id="omLP0h6Ja_QN9Xo375QR-18" value="电动车租赁" style="rounded=0;whiteSpace=wrap;html=1;" vertex="1" parent="1">
          <mxGeometry x="740" y="450" width="90" height="40" as="geometry" />
        </mxCell>
        <mxCell id="omLP0h6Ja_QN9Xo375QR-55" style="rounded=0;orthogonalLoop=1;jettySize=auto;html=1;endArrow=none;startFill=0;" edge="1" parent="1" source="omLP0h6Ja_QN9Xo375QR-19" target="omLP0h6Ja_QN9Xo375QR-20">
          <mxGeometry relative="1" as="geometry" />
        </mxCell>
        <mxCell id="omLP0h6Ja_QN9Xo375QR-56" value="n" style="edgeLabel;html=1;align=center;verticalAlign=middle;resizable=0;points=[];" vertex="1" connectable="0" parent="omLP0h6Ja_QN9Xo375QR-55">
          <mxGeometry x="-0.3333" relative="1" as="geometry">
            <mxPoint as="offset" />
          </mxGeometry>
        </mxCell>
        <mxCell id="omLP0h6Ja_QN9Xo375QR-19" value="查看" style="rhombus;whiteSpace=wrap;html=1;" vertex="1" parent="1">
          <mxGeometry x="890" y="330" width="80" height="80" as="geometry" />
        </mxCell>
        <mxCell id="omLP0h6Ja_QN9Xo375QR-20" value="逾期提醒" style="rounded=0;whiteSpace=wrap;html=1;" vertex="1" parent="1">
          <mxGeometry x="890" y="540" width="90" height="40" as="geometry" />
        </mxCell>
        <mxCell id="omLP0h6Ja_QN9Xo375QR-68" style="rounded=0;orthogonalLoop=1;jettySize=auto;html=1;entryX=-0.033;entryY=0.659;entryDx=0;entryDy=0;entryPerimeter=0;endArrow=none;startFill=0;" edge="1" parent="1" source="omLP0h6Ja_QN9Xo375QR-12" target="omLP0h6Ja_QN9Xo375QR-20">
          <mxGeometry relative="1" as="geometry" />
        </mxCell>
        <mxCell id="omLP0h6Ja_QN9Xo375QR-69" value="n" style="edgeLabel;html=1;align=center;verticalAlign=middle;resizable=0;points=[];" vertex="1" connectable="0" parent="omLP0h6Ja_QN9Xo375QR-68">
          <mxGeometry x="-0.1622" relative="1" as="geometry">
            <mxPoint as="offset" />
          </mxGeometry>
        </mxCell>
      </root>
    </mxGraphModel>
  </diagram>
</mxfile>
